<svg width="20" height="38" viewBox="0 0 20 38" fill="none" xmlns="http://www.w3.org/2000/svg">
<path d="M9.99992 0.666992C11.5215 0.666866 12.9856 1.24889 14.0917 2.29372C15.1979 3.33855 15.8625 4.76701 15.9491 6.28616L15.9583 6.62533L15.9601 21.204L16.1068 21.3305C17.8138 22.8548 18.8889 24.9625 19.1208 27.2393L19.1556 27.7013L19.1666 28.167C19.1669 29.6773 18.7939 31.1643 18.081 32.4958C17.368 33.8272 16.3371 34.9619 15.0799 35.7989C13.8228 36.6359 12.3782 37.1493 10.8748 37.2934C9.37137 37.4376 7.85561 37.208 6.46229 36.6251C5.06896 36.0423 3.84125 35.1242 2.88829 33.9524C1.93533 32.7807 1.28666 31.3917 0.999944 29.9088C0.713227 28.4259 0.797351 26.8952 1.24484 25.4527C1.69232 24.0102 2.4893 22.7006 3.56492 21.6403L3.89492 21.3287L4.03975 21.204L4.04159 6.62533C4.04128 5.16105 4.58018 3.74794 5.55542 2.65569C6.53067 1.56344 7.87396 0.868559 9.32892 0.703659L9.66259 0.676159L9.99992 0.666992ZM9.99992 3.41699C9.19445 3.41706 8.41847 3.7201 7.82612 4.26591C7.23378 4.81173 6.8684 5.56038 6.80259 6.36316L6.79159 6.62533V22.5662L6.22509 22.9768C5.14274 23.7641 4.33367 24.8701 3.91112 26.1401C3.48857 27.41 3.47369 28.7803 3.86857 30.0591C4.26345 31.3379 5.04832 32.4612 6.11332 33.2718C7.17831 34.0824 8.47012 34.5397 9.80792 34.5797C11.1457 34.6197 12.4625 34.2404 13.574 33.4948C14.6855 32.7493 15.5361 31.6748 16.0066 30.4219C16.4772 29.1689 16.5441 27.8002 16.1982 26.5073C15.8522 25.2144 15.1106 24.062 14.0773 23.2115L13.7748 22.9787L13.2119 22.5662L13.2083 6.62533C13.2083 5.77442 12.8702 4.95837 12.2686 4.35669C11.6669 3.75501 10.8508 3.41699 9.99992 3.41699ZM9.99992 11.667C10.3646 11.667 10.7143 11.8119 10.9722 12.0697C11.2301 12.3276 11.3749 12.6773 11.3749 13.042V23.7945C12.42 24.123 13.313 24.8149 13.8921 25.7448C14.4712 26.6748 14.6982 27.7813 14.532 28.8642C14.3658 29.947 13.8174 30.9346 12.9861 31.6481C12.1548 32.3616 11.0954 32.7538 9.99992 32.7538C8.9044 32.7538 7.84507 32.3616 7.01374 31.6481C6.1824 30.9346 5.634 29.947 5.46782 28.8642C5.30163 27.7813 5.52864 26.6748 6.10776 25.7448C6.68687 24.8149 7.57981 24.123 8.62492 23.7945V13.042C8.62492 12.6773 8.76979 12.3276 9.02765 12.0697C9.28551 11.8119 9.63525 11.667 9.99992 11.667Z" fill="black"/>
</svg>
