<svg width="40" height="40" viewBox="0 0 40 40" fill="none" xmlns="http://www.w3.org/2000/svg">
<path d="M32.0485 8.75752C31.0538 6.38263 29.3795 4.35466 27.2358 2.9284C25.0922 1.50214 22.5748 0.741211 20 0.741211C17.4253 0.741211 14.9079 1.50214 12.7643 2.9284C10.6206 4.35466 8.94627 6.38263 7.9516 8.75752C5.80352 9.73933 3.98277 11.3177 2.70604 13.3047C1.42931 15.2917 0.750379 17.6037 0.75004 19.9655C0.732853 26.5311 6.25004 32.203 12.8054 32.3749C14.8217 32.4235 16.8194 31.9792 18.625 31.0806V37.8749C18.625 38.2395 18.7699 38.5893 19.0278 38.8471C19.2856 39.105 19.6354 39.2499 20 39.2499C20.3647 39.2499 20.7145 39.105 20.9723 38.8471C21.2302 38.5893 21.375 38.2395 21.375 37.8749V31.0806C23.0845 31.9292 24.9666 32.3721 26.875 32.3749H27.1879C33.75 32.203 39.2689 26.5311 39.25 19.9655C39.2497 17.6037 38.5708 15.2917 37.294 13.3047C36.0173 11.3177 34.1966 9.73933 32.0485 8.75752ZM27.1243 29.6249C25.0738 29.6783 23.0598 29.0762 21.375 27.9061V20.8592L28.8654 17.1158C29.027 17.035 29.1711 16.9232 29.2895 16.7867C29.4078 16.6502 29.4982 16.4917 29.5553 16.3203C29.6125 16.1489 29.6353 15.9679 29.6225 15.7876C29.6097 15.6074 29.5615 15.4315 29.4807 15.2699C29.3999 15.1083 29.288 14.9641 29.1515 14.8458C29.015 14.7274 28.8565 14.637 28.6851 14.5799C28.5137 14.5228 28.3327 14.4999 28.1525 14.5128C27.9723 14.5256 27.7963 14.5737 27.6347 14.6545L21.375 17.7758V13.1249C21.375 12.7602 21.2302 12.4105 20.9723 12.1526C20.7145 11.8947 20.3647 11.7499 20 11.7499C19.6354 11.7499 19.2856 11.8947 19.0278 12.1526C18.7699 12.4105 18.625 12.7602 18.625 13.1249V21.9008L12.3654 18.7692C12.039 18.606 11.6611 18.5792 11.3149 18.6946C10.9688 18.81 10.6826 19.0582 10.5194 19.3845C10.3562 19.7109 10.3294 20.0888 10.4448 20.435C10.5602 20.7811 10.8083 21.0673 11.1347 21.2305L18.625 24.9739V27.8958C16.9408 29.0667 14.9264 29.6689 12.8758 29.6146C7.77973 29.4925 3.48629 25.0736 3.50004 19.9724C3.49874 18.0539 4.07316 16.1791 5.14899 14.5906C6.22482 13.0022 7.75257 11.7731 9.53457 11.0624C9.71334 10.9906 9.87502 10.882 10.0092 10.7438C10.1433 10.6055 10.2469 10.4406 10.3132 10.2597C11.0384 8.2735 12.3567 6.55825 14.0895 5.34635C15.8222 4.13444 17.8856 3.48445 20 3.48445C22.1145 3.48445 24.1779 4.13444 25.9106 5.34635C27.6433 6.55825 28.9616 8.2735 29.6869 10.2597C29.7532 10.4406 29.8568 10.6055 29.9909 10.7438C30.1251 10.882 30.2867 10.9906 30.4655 11.0624C32.2472 11.7735 33.7747 13.0027 34.8505 14.591C35.9263 16.1794 36.5009 18.054 36.5 19.9724C36.5138 25.0736 32.2204 29.4925 27.1243 29.6249Z" fill="black"/>
</svg>
