<svg width="32" height="36" viewBox="0 0 32 36" fill="none" xmlns="http://www.w3.org/2000/svg">
<path fill-rule="evenodd" clip-rule="evenodd" d="M3.63872 28.2586C0.820884 25.1603 0.0508838 21.2406 0.393717 17.739C0.771384 13.8761 2.53322 10.171 4.82672 8.25882C7.89205 5.70498 11.1114 4.65632 13.9054 4.14298C15.2659 3.90951 16.6362 3.73639 18.0121 3.62415C18.7527 3.55448 19.5026 3.48482 20.2231 3.30515C21.7411 2.92565 23.2389 2.30965 24.4727 1.33065C25.0374 0.881484 25.6094 0.426817 26.3702 0.51115C26.6437 0.541577 26.9069 0.633183 27.1401 0.779173C27.3734 0.925164 27.5708 1.1218 27.7177 1.35448C33.5844 10.644 32.6989 20.5055 27.7984 26.7168C25.3509 29.817 21.9134 31.9803 17.9039 32.6202C14.4059 33.1757 10.5834 32.5541 6.73155 30.5375C6.39316 31.5894 6.14176 32.6674 5.97988 33.7605C5.91108 34.2419 5.65388 34.6762 5.26485 34.9679C4.87582 35.2596 4.38684 35.3849 3.90547 35.3161C3.4241 35.2473 2.98978 34.9901 2.69805 34.601C2.40632 34.212 2.28108 33.723 2.34988 33.2416C2.57722 31.6558 3.00988 29.9673 3.63872 28.2586ZM14.5654 7.74915C15.8561 7.51265 17.0679 7.39898 18.2449 7.28348C19.2056 7.19182 20.1735 7.09648 21.1122 6.86182C22.6933 6.47521 24.2074 5.85351 25.6039 5.01748C29.5969 12.5653 28.4822 19.9298 24.92 24.4471C22.9987 26.8818 20.3569 28.5171 17.3301 28.9975C14.6112 29.4301 11.4634 28.9535 8.10838 27.1165C10.1471 22.9603 13.48 18.9765 17.8195 16.8076C18.2547 16.5903 18.5857 16.209 18.7398 15.7476C18.8938 15.2862 18.8582 14.7825 18.6409 14.3473C18.4235 13.9121 18.0422 13.5811 17.5808 13.4271C17.1194 13.2731 16.6157 13.3086 16.1806 13.526C11.3992 15.9166 7.73622 20.0508 5.35472 24.46C4.17955 22.535 3.82755 20.2965 4.04388 18.0946C4.35372 14.9266 5.80388 12.2188 7.17338 11.0748C9.60805 9.04532 12.1747 8.18915 14.5672 7.74915H14.5654Z" fill="black"/>
</svg>
