<svg width="44" height="44" viewBox="0 0 44 44" fill="none" xmlns="http://www.w3.org/2000/svg">
<path d="M39.0927 8.25L27.8125 19.3961V8.25H24.8455L14.0625 19.187V1.375H1V42.625H42.25V8.25H39.0927ZM39.5 39.875H3.75V4.125H11.3125V22.6875H14.4731L25.0625 11.9469V22.6875H28.3938L39.5 11.7133V39.875Z" fill="black"/>
<path d="M11.6875 28.1875V28.875H14.4375V26.125H11.6875V28.1875ZM11.6875 32.3125H14.4375V35.0625H11.6875V32.3125ZM18.5625 28.1875V28.875H21.3125V26.125H18.5625V28.1875ZM18.5625 32.3125H21.3125V35.0625H18.5625V32.3125ZM25.4375 28.1875V28.875H28.1875V26.125H25.4375V28.1875ZM25.4375 32.3125H28.1875V35.0625H25.4375V32.3125ZM32.3125 26.125H35.0625V28.875H32.3125V26.125ZM32.3125 32.3125H35.0625V35.0625H32.3125V32.3125Z" fill="black"/>
</svg>
