<svg width="34" height="30" viewBox="0 0 34 30" fill="none" xmlns="http://www.w3.org/2000/svg">
<path d="M29.65 2.00033C29.2833 0.900325 28.1833 0.166992 27.0833 0.166992H6.91667C5.63333 0.166992 4.71667 0.900325 4.35 2.00033L0.5 13.0003V27.667C0.5 28.5837 1.41667 29.5003 2.33333 29.5003H4.16667C5.26667 29.5003 6 28.5837 6 27.667V25.8337H28V27.667C28 28.5837 28.9167 29.5003 29.8333 29.5003H31.6667C32.5833 29.5003 33.5 28.5837 33.5 27.667V13.0003L29.65 2.00033ZM7.46667 3.83366H26.35L28.3667 9.33366H5.63333L7.46667 3.83366ZM29.8333 22.167H4.16667V13.0003H29.8333V22.167ZM8.75 14.8337C10.2167 14.8337 11.5 16.117 11.5 17.5837C11.5 19.0503 10.2167 20.3337 8.75 20.3337C7.28333 20.3337 6 19.0503 6 17.5837C6 16.117 7.28333 14.8337 8.75 14.8337ZM25.25 14.8337C26.7167 14.8337 28 16.117 28 17.5837C28 19.0503 26.7167 20.3337 25.25 20.3337C23.7833 20.3337 22.5 19.0503 22.5 17.5837C22.5 16.117 23.7833 14.8337 25.25 14.8337Z" fill="black"/>
</svg>
