<svg xmlns="http://www.w3.org/2000/svg" width="80" height="80" viewBox="0 0 80 80" fill="none">
  <path d="M54.1433 42.4147C63.8547 33.3678 73.0004 24.9005 73.0004 17.6244C73.0004 11.6683 68.4433 7 62.629 7C59.3604 7 56.1861 8.57756 54.1433 11.0244C52.069 8.57756 48.9261 7 45.6576 7C39.8433 7 35.2861 11.6683 35.2861 17.6244C35.2861 24.9005 44.4319 33.3678 54.1433 42.4147ZM45.6576 13.439C47.0404 13.439 48.4547 14.1151 49.3661 15.2098L54.1433 20.9727L58.9204 15.2098C59.8319 14.1151 61.2461 13.439 62.629 13.439C64.9547 13.439 66.7147 15.242 66.7147 17.6244C66.7147 21.2303 60.3033 27.8303 54.1433 33.6898C47.9833 27.8303 41.5719 21.1981 41.5719 17.6244C41.5719 15.242 43.3319 13.439 45.6576 13.439Z" fill="black"/>
  <path d="M63.5715 52.0732H57.2857C57.2857 48.2097 54.9286 44.7327 51.4086 43.3805L32.0486 35.9756H7V71.3902H25.8572V66.7541L47.8572 73L73 64.9512V61.7317C73 56.3873 68.7886 52.0732 63.5715 52.0732ZM13.2857 64.9512V42.4146H19.5714V64.9512H13.2857ZM47.7629 66.2712L25.8572 60.0575V42.4146H30.9172L49.2086 49.401C50.2772 49.8195 51 50.8819 51 52.0732C51 52.0732 44.7457 51.9122 43.7715 51.5902L36.2914 49.0468L34.3114 55.1639L41.7914 57.7073C43.3943 58.2546 45.06 58.5444 46.7572 58.5444H63.5715C64.7972 58.5444 65.8972 59.2849 66.4 60.3473L47.7629 66.2712Z" fill="black"/>
</svg>