<svg xmlns="http://www.w3.org/2000/svg" width="80" height="80" viewBox="0 0 80 80" fill="none">
  <path d="M63.3334 61.0332V66.6665C63.3334 68.4346 62.631 70.1303 61.3807 71.3805C60.1305 72.6308 58.4348 73.3332 56.6667 73.3332H23.3334C21.5652 73.3332 19.8696 72.6308 18.6193 71.3805C17.3691 70.1303 16.6667 68.4346 16.6667 66.6665V54.3332C15.1334 53.7332 13.1667 53.3332 10 53.3332C9.11597 53.3332 8.26812 52.982 7.643 52.3569C7.01788 51.7317 6.66669 50.8839 6.66669 49.9998C6.66669 49.1158 7.01788 48.2679 7.643 47.6428C8.26812 47.0177 9.11597 46.6665 10 46.6665C12.7334 46.6665 14.9 46.9332 16.6667 47.3665V40.9998C15.1334 40.3998 13.1667 39.9998 10 39.9998C9.11597 39.9998 8.26812 39.6486 7.643 39.0235C7.01788 38.3984 6.66669 37.5506 6.66669 36.6665C6.66669 35.7824 7.01788 34.9346 7.643 34.3095C8.26812 33.6844 9.11597 33.3332 10 33.3332C12.7334 33.3332 14.9 33.5998 16.6667 34.0332V27.6665C15.1334 27.0665 13.1667 26.6665 10 26.6665C9.11597 26.6665 8.26812 26.3153 7.643 25.6902C7.01788 25.0651 6.66669 24.2172 6.66669 23.3332C6.66669 22.4491 7.01788 21.6013 7.643 20.9761C8.26812 20.351 9.11597 19.9998 10 19.9998C12.7334 19.9998 14.9 20.2665 16.6667 20.6998V13.3332C16.6667 11.5651 17.3691 9.86937 18.6193 8.61913C19.8696 7.36888 21.5652 6.6665 23.3334 6.6665H56.6667C58.4348 6.6665 60.1305 7.36888 61.3807 8.61913C62.631 9.86937 63.3334 11.5651 63.3334 13.3332V20.5332C69.2667 21.5665 71.8 23.7665 72.3667 24.2998C73.6667 25.5998 73.6667 27.7332 72.3667 29.0332C71.0667 30.3332 69.3334 30.2998 67.6334 29.0332C67.6334 29.0332 64.1667 26.6665 56.6667 26.6665C52.4667 26.6665 49.7 28.0332 46.5 29.6665C43.0334 31.3665 39.1334 33.3332 33.3334 33.3332C32.1334 33.3332 31.0334 33.3332 30 33.1998V26.4998C31 26.6665 32.1 26.6665 33.3334 26.6665C37.5334 26.6665 40.3 25.2998 43.5 23.6998C46.9667 21.9665 50.9 19.9998 56.6667 19.9998V13.3332H23.3334V66.6665H56.6667V59.9998C61.6667 59.9998 63.2334 60.9665 63.3334 61.0332ZM56.6667 33.3332C50.9 33.3332 46.9667 35.2998 43.5 37.0332C40.3 38.6332 37.5334 39.9998 33.3334 39.9998C32.1 39.9998 31 39.9998 30 39.8332V46.5332C31.0334 46.6665 32.1334 46.6665 33.3334 46.6665C39.1334 46.6665 43.0334 44.6998 46.5 42.9998C49.7 41.3998 52.4667 39.9998 56.6667 39.9998C64.1667 39.9998 67.6334 42.3665 67.6334 42.3665C69.3334 43.6665 71.0667 43.6665 72.3667 42.3665C73.6667 41.0665 73.6667 38.9665 72.3667 37.6332C71.6667 36.9332 67.5 33.3332 56.6667 33.3332ZM56.6667 46.6665C50.9 46.6665 46.9667 48.6332 43.5 50.3665C40.3 51.9665 37.5334 53.3332 33.3334 53.3332C32.1 53.3332 31 53.3332 30 53.1665V59.8665C31.0334 59.9998 32.1334 59.9998 33.3334 59.9998C39.1334 59.9998 43.0334 58.0332 46.5 56.3332C49.7 54.7332 52.4667 53.3332 56.6667 53.3332C64.1667 53.3332 67.6334 55.6998 67.6334 55.6998C69.3334 56.9998 71.0667 56.9998 72.3667 55.6998C73.6667 54.3998 73.6667 52.2998 72.3667 50.9665C71.6667 50.2665 67.5 46.6665 56.6667 46.6665Z" fill="black"/>
</svg>