<svg width="80" height="80" viewBox="0 0 80 80" fill="none" xmlns="http://www.w3.org/2000/svg">
<path d="M42.0958 8.3173C42.0958 6.84262 40.8406 5.5874 39.3659 5.5874C37.8913 5.5874 36.6374 6.84262 36.6374 8.3173V17.4758C36.6374 18.9492 37.8926 20.2044 39.3673 20.2044C40.8393 20.2044 42.0945 18.9492 42.0945 17.4745L42.0958 8.3173ZM21.5199 25.6602C22.5557 26.728 24.3114 26.728 25.3779 25.6602C26.4123 24.6257 26.4123 22.87 25.3779 21.8035L18.9479 15.3428C17.9135 14.307 16.1565 14.2762 15.09 15.3106C14.0555 16.3464 14.0555 18.1021 15.09 19.1686L21.5199 25.6602ZM53.0087 22.1166C51.9743 23.1832 51.9743 24.9402 53.0087 25.9746C54.0753 27.0412 55.8323 27.0412 56.8988 25.9746L63.3596 19.5139C63.8716 18.9963 64.1588 18.2976 64.1588 17.5695C64.1588 16.8414 63.8716 16.1427 63.3596 15.6251C62.3238 14.5894 60.5681 14.5894 59.5016 15.6251L53.0087 22.1166ZM55.4242 69.9473L49.215 55.4562L57.1812 55.8964C58.4658 55.958 59.0948 54.5783 58.1848 53.6376L39.0528 34.0974C38.2057 33.2196 36.9519 33.6906 36.889 34.9445L36.5437 62.1056C36.5116 63.4545 38.0171 64.0192 38.8962 63.0156L44.0081 57.3698L49.9978 72.2049C50.3123 72.8633 50.9386 73.1456 51.5354 72.9275L54.8916 71.5465C55.487 71.327 55.7373 70.6057 55.4242 69.9473ZM8.06583 36.8889C6.59115 36.8889 5.33594 38.1441 5.33594 39.6188C5.33594 41.0921 6.59115 42.3473 8.06583 42.3473H17.2551C18.7285 42.3473 19.9837 41.0921 19.9837 39.6174C19.9837 38.1441 18.7285 36.8889 17.2538 36.8889H8.06583ZM70.6661 42.3473C72.1407 42.3473 73.396 41.0921 73.396 39.6174C73.396 38.1441 72.1407 36.8889 70.6661 36.8889H61.5089C60.0342 36.8889 58.779 38.1441 58.779 39.6188C58.779 41.0921 60.0342 42.3473 61.5089 42.3473H70.6661ZM15.3723 59.7209C14.3071 60.7554 14.3071 62.5445 15.3415 63.5789C16.376 64.6133 18.1651 64.6455 19.2303 63.6097L25.691 57.149C26.7268 56.1145 26.7268 54.3575 25.691 53.291C24.6874 52.2566 22.8996 52.2566 21.8344 53.291L15.3723 59.7209Z" fill="black"/>
</svg>
