<svg width="231" height="231" viewBox="0 0 231 231" fill="none" xmlns="http://www.w3.org/2000/svg">
<mask id="mask0_3062_11582" style="mask-type:luminance" maskUnits="userSpaceOnUse" x="0" y="88" width="231" height="143">
<path d="M0.046875 88.6667H230.646V230.865H0.046875V88.6667Z" fill="white"/>
</mask>
<g mask="url(#mask0_3062_11582)">
<path d="M227.531 211.401C229.646 208.693 230.385 205.208 229.573 201.87L222.562 173.807C221.932 171.287 219.786 169.578 217.151 169.578C214.521 169.578 212.37 171.287 211.74 173.807L204.734 201.87C203.88 205.208 204.62 208.693 206.771 211.401C208.438 213.552 210.812 214.958 213.443 215.443V223.078H196.536V141.516C196.536 140.219 195.87 139.031 194.76 138.365L170.661 123.537C169.625 122.87 168.286 122.792 167.177 123.313L148.344 132.026V108.151C148.344 106.443 147.193 104.958 145.526 104.552C136.182 102.219 127.505 98.1042 119.797 92.3178L117.198 90.3542C115.865 89.3542 114.089 89.3542 112.75 90.3542L110.156 92.3178C102.443 98.1042 93.7708 102.219 84.4271 104.552C82.7969 104.958 81.6094 106.443 81.6094 108.151V123.833L68.6719 116.083C67.5938 115.417 66.224 115.38 65.1094 115.932L35.4531 130.766C34.1927 131.396 33.4115 132.693 33.4115 134.063V223.042H16.9531V215.406C19.5833 214.922 21.9583 213.516 23.625 211.365C25.7396 208.656 26.4792 205.172 25.6667 201.833L18.6562 173.771C18.026 171.25 15.875 169.542 13.2448 169.542C10.6146 169.542 8.46354 171.25 7.83333 173.771L0.822917 201.833C-0.026042 205.172 0.713541 208.656 2.86458 211.365C4.53125 213.516 6.90625 214.922 9.53646 215.406V223.042H0.046875V230.458H229.906V223.042H220.859V215.406C223.49 214.922 225.865 213.516 227.531 211.365V211.401ZM11.6146 208.25C10.4635 208.25 9.39062 207.729 8.68229 206.839C7.97917 205.948 7.71875 204.766 8.01562 203.651L13.2448 182.781L18.474 203.651C18.7708 204.766 18.474 205.912 17.8021 206.839C17.099 207.729 16.026 208.25 14.875 208.25H11.6146ZM63.0729 223.078H40.8281V203.724L63.0729 198.167V223.078ZM63.0729 190.526L40.8281 196.089V181.479L63.0729 175.922V190.526ZM63.0729 168.281L40.8281 173.844V158.901L63.0729 150.563V168.281ZM63.0729 142.667L40.8281 151.005V136.401L63.0729 125.276V142.667ZM81.6094 223.078H70.4844V125.833L81.6094 132.505V223.078ZM96.4375 204.542V223.078H89.026V111.005C96.9948 108.703 104.411 105.146 111.271 100.51V186.375C102.818 188.078 96.4375 195.568 96.4375 204.542ZM126.099 223.078H103.854V204.542C103.854 198.422 108.859 193.422 114.974 193.422C121.094 193.422 126.099 198.422 126.099 204.542V223.078ZM140.927 223.078H133.51V204.542C133.51 195.604 127.135 188.12 118.682 186.375V100.51C125.542 105.146 132.958 108.703 140.927 111.005V223.078ZM189.125 223.078H148.344V140.182L168.474 130.875L189.125 143.594V223.078ZM218.781 208.25H215.521C214.37 208.25 213.297 207.729 212.594 206.839C211.885 205.948 211.63 204.766 211.927 203.651L217.151 182.781L222.38 203.651C222.677 204.766 222.38 205.912 221.714 206.839C221.005 207.729 219.932 208.25 218.781 208.25Z" fill="black"/>
</g>
<mask id="mask1_3062_11582" style="mask-type:luminance" maskUnits="userSpaceOnUse" x="7" y="0" width="155" height="165">
<path d="M7 0.265625H161.667V164.667H7V0.265625Z" fill="white"/>
</mask>
<g mask="url(#mask1_3062_11582)">
<path d="M114.974 8.04696C129.989 8.04696 144.411 11.2761 157.87 17.6876L161.057 10.9792C146.599 4.11987 131.104 0.635498 114.974 0.635498C55.6925 0.635498 7.46338 48.8699 7.46338 108.151C7.46338 127.724 12.7603 146.891 22.8071 163.573L29.1509 159.755C19.8071 144.224 14.8384 126.391 14.8384 108.188C14.8748 52.948 59.7707 8.04696 114.974 8.04696Z" fill="black"/>
</g>
<path d="M210.219 158.052C218.266 142.776 222.49 125.5 222.49 108.151C222.49 106.849 222.49 105.589 222.417 104.292L215 104.552C215.036 105.74 215.078 106.927 215.078 108.109C215.078 124.276 211.146 140.365 203.656 154.604L210.219 158.052Z" fill="black"/>
<mask id="mask2_3062_11582" style="mask-type:luminance" maskUnits="userSpaceOnUse" x="140" y="15" width="91" height="90">
<path d="M140.333 15.3335H230.646V104.667H140.333V15.3335Z" fill="white"/>
</mask>
<g mask="url(#mask2_3062_11582)">
<path d="M227.495 51.2032L223.235 49.0157C222.417 46.2345 221.302 43.5678 219.896 41.0053L221.381 36.448C221.75 35.297 221.526 34.0365 220.787 33.073C218.375 29.8855 215.521 27.0678 212.334 24.6199C211.37 23.8803 210.11 23.6563 208.959 24.0261L204.401 25.5105C201.839 24.1042 199.172 22.9897 196.391 22.172L194.203 17.9115C193.646 16.8334 192.61 16.0938 191.386 15.948C186.901 15.3542 183.969 15.3542 179.485 15.948C178.297 16.0938 177.224 16.8334 176.667 17.9115L174.479 22.172C171.698 22.9897 169.032 24.1042 166.474 25.5105L161.912 24.0261C160.761 23.6563 159.5 23.8803 158.537 24.6199C155.349 27.0313 152.532 29.8855 150.084 33.073C149.344 34.0365 149.12 35.297 149.49 36.448L150.974 41.0053C149.568 43.5678 148.453 46.2345 147.641 49.0157L143.375 51.2032C142.297 51.7605 141.558 52.797 141.412 54.0209C141.115 56.2813 140.964 58.172 140.964 59.9897C140.964 61.8074 141.115 63.698 141.412 65.9584C141.558 67.1459 142.297 68.2188 143.375 68.7761L147.641 70.9636C148.453 73.7449 149.568 76.4115 150.974 78.974L149.49 83.5313C149.12 84.6824 149.344 85.9428 150.084 86.9063C152.495 90.0938 155.349 92.9115 158.537 95.3595C159.5 96.099 160.761 96.323 161.912 95.9532L166.474 94.4688C169.032 95.8751 171.698 96.9897 174.479 97.8074L176.667 102.068C177.224 103.146 178.261 103.885 179.485 104.031C181.745 104.328 183.636 104.479 185.453 104.479C187.271 104.479 189.162 104.328 191.422 104.031C192.61 103.885 193.683 103.146 194.24 102.068L196.427 97.8074C199.209 96.9897 201.875 95.8751 204.438 94.4688L208.995 95.9532C210.146 96.323 211.407 96.099 212.37 95.3595C215.558 92.948 218.375 90.0938 220.823 86.9063C221.563 85.9428 221.787 84.6824 221.417 83.5313L219.933 78.974C221.344 76.4115 222.453 73.7449 223.271 70.9636L227.532 68.7761C228.61 68.2188 229.349 67.1824 229.5 65.9584C229.792 63.698 229.943 61.8074 229.943 59.9897C229.943 58.172 229.792 56.2813 229.5 54.0209C229.349 52.8334 228.61 51.7605 227.532 51.2032H227.495ZM222.344 63.0313L218.375 65.0678C217.412 65.5522 216.745 66.4428 216.485 67.4792C215.709 70.6667 214.448 73.7084 212.74 76.5261C212.183 77.4532 212.037 78.5626 212.37 79.6042L213.74 83.8647C212.407 85.422 210.959 86.9063 209.365 88.2397L205.104 86.8699C204.063 86.5365 202.953 86.6824 202.026 87.2397C199.209 88.9428 196.167 90.2032 192.979 90.9845C191.943 91.2449 191.052 91.948 190.568 92.8751L188.532 96.8438C186.308 97.0626 184.599 97.0626 182.375 96.8438L180.339 92.8751C179.854 91.9115 178.964 91.2449 177.927 90.9845C174.74 90.2032 171.698 88.9428 168.881 87.2397C167.953 86.6824 166.844 86.5365 165.802 86.8699L161.542 88.2397C159.985 86.9063 158.5 85.4584 157.167 83.8647L158.537 79.6042C158.87 78.5626 158.724 77.4532 158.167 76.5261C156.464 73.7084 155.203 70.6667 154.422 67.4792C154.162 66.4428 153.459 65.5522 152.532 65.0678L148.563 63.0313C148.453 61.9167 148.417 60.9167 148.417 59.9532C148.417 58.9897 148.453 57.9897 148.563 56.8751L152.532 54.8386C153.495 54.3542 154.198 53.4636 154.422 52.4272C155.203 49.2397 156.464 46.198 158.167 43.3803C158.724 42.4532 158.87 41.3438 158.537 40.3022L157.167 36.0417C158.5 34.4845 159.948 33.0001 161.542 31.6667L165.802 33.0365C166.844 33.3699 167.953 33.224 168.881 32.6667C171.698 30.9584 174.74 29.698 177.927 28.922C178.964 28.6615 179.854 27.9584 180.339 27.0313L182.375 23.0626C184.599 22.8438 186.308 22.8438 188.532 23.0626L190.568 27.0313C191.052 27.9949 191.943 28.6615 192.979 28.922C196.167 29.698 199.209 30.9584 202.026 32.6667C202.953 33.224 204.063 33.3699 205.104 33.0365L209.365 31.6667C210.922 33.0001 212.407 34.448 213.74 36.0417L212.37 40.3022C212.037 41.3438 212.183 42.4532 212.74 43.3803C214.448 46.198 215.709 49.2397 216.485 52.4272C216.745 53.4636 217.448 54.3542 218.375 54.8386L222.344 56.8751C222.453 57.9897 222.49 58.9897 222.49 59.9532C222.49 60.9167 222.453 61.9167 222.344 63.0313Z" fill="black"/>
</g>
<path d="M185.417 35.8542C172.146 35.8542 161.318 46.6824 161.318 59.9532C161.318 73.224 172.146 84.0522 185.417 84.0522C198.688 84.0522 209.516 73.224 209.516 59.9532C209.516 46.6824 198.688 35.8542 185.417 35.8542ZM185.417 76.6355C176.224 76.6355 168.735 69.1459 168.735 59.9532C168.735 50.7605 176.224 43.2709 185.417 43.2709C194.61 43.2709 202.099 50.7605 202.099 59.9532C202.099 69.1459 194.61 76.6355 185.417 76.6355Z" fill="black"/>
<path d="M96.4375 119.271H103.854V130.396H96.4375V119.271Z" fill="black"/>
<path d="M96.4375 141.516H103.854V152.635H96.4375V141.516Z" fill="black"/>
<path d="M96.4375 163.76H103.854V174.88H96.4375V163.76Z" fill="black"/>
<path d="M126.099 119.271H133.511V160.052H126.099V119.271Z" fill="black"/>
<path d="M174.297 148.932H181.708V160.052H174.297V148.932Z" fill="black"/>
<path d="M155.755 148.932H163.172V160.052H155.755V148.932Z" fill="black"/>
<path d="M174.297 174.88H181.708V186.005H174.297V174.88Z" fill="black"/>
<path d="M155.755 174.88H163.172V186.005H155.755V174.88Z" fill="black"/>
<path d="M126.099 167.469H133.511V174.88H126.099V167.469Z" fill="black"/>
</svg>
