<svg width="231" height="190" viewBox="0 0 231 190" fill="none" xmlns="http://www.w3.org/2000/svg">
<path d="M151.302 73.198L151.776 77.7865C153.292 77.6355 154.86 77.5574 156.443 77.5574C157.75 77.5574 159.094 77.6095 160.443 77.7136L160.807 73.1199C159.339 73.0053 157.87 72.948 156.443 72.948C154.703 72.948 152.979 73.0313 151.302 73.198Z" fill="#1E587B
"/>
<path d="M133.162 78.9062L135.547 82.8853C138.016 81.4687 140.646 80.3228 143.365 79.4739L141.927 75.0833C138.88 76.0364 135.932 77.3176 133.162 78.9062Z" fill="#1E587B
"/>
<path d="M70.1092 141.865C73.2186 141.245 76.2811 140.375 79.2082 139.281L77.5207 134.974C74.8384 135.979 72.0259 136.776 69.1665 137.344L70.1092 141.865Z" fill="#1E587B
"/>
<path d="M119.005 91.2343L122.714 94.0833C124.568 91.7812 126.557 89.6874 128.62 87.8645L125.458 84.4426C123.198 86.4374 121.026 88.7239 119.005 91.2343Z" fill="#1E587B
"/>
<path d="M51.7344 138.198L51.3125 142.792C53.4219 142.974 55.5313 143.068 57.5833 143.068C58.6354 143.068 59.6927 143.047 60.7292 142.995L60.5052 138.391C59.5417 138.438 58.5625 138.458 57.5833 138.458C55.6719 138.458 53.7031 138.37 51.7344 138.198Z" fill="#1E587B
"/>
<path d="M92.5052 126.406C90.224 128.234 87.8177 129.875 85.3594 131.286L87.75 135.266C90.4167 133.729 93.026 131.953 95.4948 129.974L92.5052 126.406Z" fill="#1E587B
"/>
<path d="M104.464 113.865C102.688 116.245 100.807 118.49 98.875 120.526L102.339 123.661C104.396 121.49 106.396 119.104 108.276 116.578L104.464 113.865Z" fill="#1E587B
"/>
<path d="M33.0103 139.052C36.0155 140.005 39.0571 140.802 42.0415 141.417L43.0155 136.906C40.1925 136.323 37.3175 135.568 34.4686 134.661L33.0103 139.052Z" fill="#1E587B
"/>
<path d="M185.844 84.6147C188.469 85.7761 191.156 87.0886 193.833 88.5209L196.094 84.474C193.313 82.9897 190.521 81.6199 187.792 80.4167L185.844 84.6147Z" fill="#1E587B
"/>
<path d="M169.099 79.0051C171.849 79.6093 174.708 80.4114 177.594 81.3853L179.141 77.0312C176.089 75.9947 173.057 75.151 170.13 74.5051L169.099 79.0051Z" fill="#1E587B
"/>
<mask id="mask0_3062_11582" style="mask-type:luminance" maskUnits="userSpaceOnUse" x="0" y="32" width="231" height="158">
<path d="M0.255371 32.8958H230.682V189.411H0.255371V32.8958Z" fill="white"/>
</mask>
<g mask="url(#mask0_3062_11582)">
<path d="M171.641 123.792L169.115 123.948L167.255 125.667L135.86 154.661L106.688 66.7917L137.724 40.2812L181.365 41.9167L204.339 89.2448C204.25 89.1927 204.162 89.1354 204.073 89.0781L201.542 92.974C203.823 94.3854 206.094 95.8854 208.313 97.4323L219.625 120.745L171.641 123.792ZM185.906 34.9427L135.214 33.0469L101.333 61.9792L92.9637 60.5052C91.87 62.6354 90.672 64.8438 89.3752 67.1198L99.9012 68.974L111.266 103.208C110.625 104.375 109.974 105.516 109.313 106.615L113.12 108.802L129.229 157.318L80.495 155.089L78.3908 154.99L76.5679 156.057L37.8804 178.714L24.4429 135.443L26.1825 131.578C24.9012 131.031 23.7554 130.505 22.7606 130.026L8.66683 84.6406L35.0314 67.599C33.797 65.4427 32.6512 63.3542 31.5939 61.3229L0.255371 81.5833L33.7397 189.411L80.172 162.219L135.448 164.75L172.089 130.911L230.682 127.198L185.906 34.9427Z" fill="#1E587B
"/>
</g>
<mask id="mask1_3062_11582" style="mask-type:luminance" maskUnits="userSpaceOnUse" x="28" y="0" width="67" height="97">
<path d="M28.3335 0.140625H95.0002V96.6667H28.3335V0.140625Z" fill="white"/>
</mask>
<g mask="url(#mask1_3062_11582)">
<path d="M44.2188 30.875C44.2188 21.0052 52.2135 13.0104 62.0677 13.0104C71.9219 13.0104 79.9167 21.0052 79.9167 30.875C79.9167 40.7396 71.9219 48.7396 62.0677 48.7396C52.2135 48.7396 44.2188 40.7396 44.2188 30.875ZM94.8177 32.9271C94.8177 14.8177 80.1563 0.140625 62.0677 0.140625C43.9792 0.140625 29.3125 14.8177 29.3125 32.9271C29.3125 54.0729 62.0677 95.4167 62.0677 95.4167C62.0677 95.4167 94.8177 54.0729 94.8177 32.9271Z" fill="#1E587B
"/>
</g>
</svg>
