<svg width="44" height="43" viewBox="0 0 44 43" fill="none" xmlns="http://www.w3.org/2000/svg">
<path d="M40.7 43L34.55 36.9C33.95 37.2667 33.3083 37.5417 32.625 37.725C31.9417 37.9083 31.2333 38 30.5 38C28.3 38 26.4167 37.2167 24.85 35.65C23.2833 34.0833 22.5 32.2 22.5 30C22.5 27.8 23.2833 25.9167 24.85 24.35C26.4167 22.7833 28.3 22 30.5 22C32.7 22 34.5833 22.7833 36.15 24.35C37.7167 25.9167 38.5 27.8 38.5 30C38.5 30.7667 38.4 31.4917 38.2 32.175C38 32.8583 37.7167 33.5 37.35 34.1L43.5 40.2L40.7 43ZM8.5 38C6.3 38 4.41667 37.2167 2.85 35.65C1.28333 34.0833 0.5 32.2 0.5 30C0.5 27.8 1.28333 25.9167 2.85 24.35C4.41667 22.7833 6.3 22 8.5 22C10.7 22 12.5833 22.7833 14.15 24.35C15.7167 25.9167 16.5 27.8 16.5 30C16.5 32.2 15.7167 34.0833 14.15 35.65C12.5833 37.2167 10.7 38 8.5 38ZM8.5 34C9.6 34 10.5417 33.6083 11.325 32.825C12.1083 32.0417 12.5 31.1 12.5 30C12.5 28.9 12.1083 27.9583 11.325 27.175C10.5417 26.3917 9.6 26 8.5 26C7.4 26 6.45833 26.3917 5.675 27.175C4.89167 27.9583 4.5 28.9 4.5 30C4.5 31.1 4.89167 32.0417 5.675 32.825C6.45833 33.6083 7.4 34 8.5 34ZM30.5 34C31.6 34 32.5417 33.6083 33.325 32.825C34.1083 32.0417 34.5 31.1 34.5 30C34.5 28.9 34.1083 27.9583 33.325 27.175C32.5417 26.3917 31.6 26 30.5 26C29.4 26 28.4583 26.3917 27.675 27.175C26.8917 27.9583 26.5 28.9 26.5 30C26.5 31.1 26.8917 32.0417 27.675 32.825C28.4583 33.6083 29.4 34 30.5 34ZM8.5 16C6.3 16 4.41667 15.2167 2.85 13.65C1.28333 12.0833 0.5 10.2 0.5 8C0.5 5.8 1.28333 3.91667 2.85 2.35C4.41667 0.783333 6.3 0 8.5 0C10.7 0 12.5833 0.783333 14.15 2.35C15.7167 3.91667 16.5 5.8 16.5 8C16.5 10.2 15.7167 12.0833 14.15 13.65C12.5833 15.2167 10.7 16 8.5 16ZM30.5 16C28.3 16 26.4167 15.2167 24.85 13.65C23.2833 12.0833 22.5 10.2 22.5 8C22.5 5.8 23.2833 3.91667 24.85 2.35C26.4167 0.783333 28.3 0 30.5 0C32.7 0 34.5833 0.783333 36.15 2.35C37.7167 3.91667 38.5 5.8 38.5 8C38.5 10.2 37.7167 12.0833 36.15 13.65C34.5833 15.2167 32.7 16 30.5 16ZM8.5 12C9.6 12 10.5417 11.6083 11.325 10.825C12.1083 10.0417 12.5 9.1 12.5 8C12.5 6.9 12.1083 5.95833 11.325 5.175C10.5417 4.39167 9.6 4 8.5 4C7.4 4 6.45833 4.39167 5.675 5.175C4.89167 5.95833 4.5 6.9 4.5 8C4.5 9.1 4.89167 10.0417 5.675 10.825C6.45833 11.6083 7.4 12 8.5 12ZM30.5 12C31.6 12 32.5417 11.6083 33.325 10.825C34.1083 10.0417 34.5 9.1 34.5 8C34.5 6.9 34.1083 5.95833 33.325 5.175C32.5417 4.39167 31.6 4 30.5 4C29.4 4 28.4583 4.39167 27.675 5.175C26.8917 5.95833 26.5 6.9 26.5 8C26.5 9.1 26.8917 10.0417 27.675 10.825C28.4583 11.6083 29.4 12 30.5 12Z" fill="black"/>
</svg>
