<svg width="45" height="45" viewBox="0 0 45 45" fill="none" xmlns="http://www.w3.org/2000/svg">
<path d="M42 44.9167L35.5938 38.5625C34.9688 38.9445 34.3007 39.2313 33.5896 39.4229C32.8785 39.6146 32.1403 39.7097 31.375 39.7083C29.0833 39.7083 27.1215 38.8924 25.4896 37.2604C23.8576 35.6285 23.0417 33.6667 23.0417 31.375C23.0417 29.0833 23.8576 27.1215 25.4896 25.4896C27.1215 23.8576 29.0833 23.0417 31.375 23.0417C33.6667 23.0417 35.6285 23.8576 37.2604 25.4896C38.8924 27.1215 39.7083 29.0833 39.7083 31.375C39.7083 32.1736 39.6042 32.9292 39.3958 33.6417C39.1875 34.3542 38.8924 35.0222 38.5104 35.6458L44.9167 42L42 44.9167ZM8.45833 39.7083C6.16667 39.7083 4.20486 38.8924 2.57292 37.2604C0.940972 35.6285 0.125 33.6667 0.125 31.375C0.125 29.0833 0.940972 27.1215 2.57292 25.4896C4.20486 23.8576 6.16667 23.0417 8.45833 23.0417C10.75 23.0417 12.7118 23.8576 14.3438 25.4896C15.9757 27.1215 16.7917 29.0833 16.7917 31.375C16.7917 33.6667 15.9757 35.6285 14.3438 37.2604C12.7118 38.8924 10.75 39.7083 8.45833 39.7083ZM8.45833 35.5417C9.60417 35.5417 10.5847 35.134 11.4 34.3188C12.2153 33.5035 12.6236 32.5222 12.625 31.375C12.6264 30.2278 12.2188 29.2472 11.4021 28.4333C10.5854 27.6194 9.60417 27.2111 8.45833 27.2083C7.3125 27.2056 6.33194 27.6139 5.51667 28.4333C4.70139 29.2528 4.29306 30.2333 4.29167 31.375C4.29028 32.5167 4.69861 33.4979 5.51667 34.3188C6.33472 35.1396 7.31528 35.5472 8.45833 35.5417ZM31.375 35.5417C32.5208 35.5417 33.5021 35.134 34.3188 34.3188C35.1354 33.5035 35.5431 32.5222 35.5417 31.375C35.5403 30.2278 35.1326 29.2472 34.3188 28.4333C33.5049 27.6194 32.5236 27.2111 31.375 27.2083C30.2264 27.2056 29.2458 27.6139 28.4333 28.4333C27.6208 29.2528 27.2125 30.2333 27.2083 31.375C27.2042 32.5167 27.6125 33.4979 28.4333 34.3188C29.2542 35.1396 30.2347 35.5472 31.375 35.5417ZM8.45833 16.7917C6.16667 16.7917 4.20486 15.9757 2.57292 14.3438C0.940972 12.7118 0.125 10.75 0.125 8.45833C0.125 6.16667 0.940972 4.20486 2.57292 2.57292C4.20486 0.940972 6.16667 0.125 8.45833 0.125C10.75 0.125 12.7118 0.940972 14.3438 2.57292C15.9757 4.20486 16.7917 6.16667 16.7917 8.45833C16.7917 10.75 15.9757 12.7118 14.3438 14.3438C12.7118 15.9757 10.75 16.7917 8.45833 16.7917ZM31.375 16.7917C29.0833 16.7917 27.1215 15.9757 25.4896 14.3438C23.8576 12.7118 23.0417 10.75 23.0417 8.45833C23.0417 6.16667 23.8576 4.20486 25.4896 2.57292C27.1215 0.940972 29.0833 0.125 31.375 0.125C33.6667 0.125 35.6285 0.940972 37.2604 2.57292C38.8924 4.20486 39.7083 6.16667 39.7083 8.45833C39.7083 10.75 38.8924 12.7118 37.2604 14.3438C35.6285 15.9757 33.6667 16.7917 31.375 16.7917ZM8.45833 12.625C9.60417 12.625 10.5854 12.2174 11.4021 11.4021C12.2188 10.5868 12.6264 9.60556 12.625 8.45833C12.6236 7.31111 12.216 6.33056 11.4021 5.51667C10.5882 4.70278 9.60695 4.29444 8.45833 4.29167C7.30972 4.28889 6.32917 4.69722 5.51667 5.51667C4.70417 6.33611 4.29583 7.31667 4.29167 8.45833C4.2875 9.6 4.69583 10.5813 5.51667 11.4021C6.3375 12.2229 7.31806 12.6306 8.45833 12.625ZM31.375 12.625C32.5208 12.625 33.5021 12.2174 34.3188 11.4021C35.1354 10.5868 35.5431 9.60556 35.5417 8.45833C35.5403 7.31111 35.1326 6.33056 34.3188 5.51667C33.5049 4.70278 32.5236 4.29444 31.375 4.29167C30.2264 4.28889 29.2458 4.69722 28.4333 5.51667C27.6208 6.33611 27.2125 7.31667 27.2083 8.45833C27.2042 9.6 27.6125 10.5813 28.4333 11.4021C29.2542 12.2229 30.2347 12.6306 31.375 12.625Z" fill="black"/>
</svg>
