<svg width="76" height="75" viewBox="0 0 76 75" fill="none" xmlns="http://www.w3.org/2000/svg">
<rect width="75" height="75" transform="translate(0.5)" fill="black"/>
<path d="M12.8737 31L21.6937 11.4H25.2777L34.1257 31H30.3177L22.7297 13.332H24.1857L16.6257 31H12.8737ZM16.9337 26.464L17.9137 23.608H28.4977L29.4777 26.464H16.9337Z" fill="white"/>
<path d="M53.6861 31.5V14.98H47.1901V11.9H63.8221V14.98H57.3261V31.5H53.6861Z" fill="white"/>
<path d="M17.7643 64.5V47.98H11.2683V44.9H27.9003V47.98H21.4043V64.5H17.7643Z" fill="white"/>
<path d="M43.8737 65L52.6937 45.4H56.2777L65.1257 65H61.3177L53.7297 47.332H55.1857L47.6257 65H43.8737ZM47.9337 60.464L48.9137 57.608H59.4977L60.4777 60.464H47.9337Z" fill="white"/>
</svg>
