<svg width="49" height="50" viewBox="0 0 49 50" fill="none" xmlns="http://www.w3.org/2000/svg">
<rect width="49" height="50" fill="black"/>
<path d="M14.7498 22H11.4544L16.4757 7.45455H20.4387L25.4529 22H22.1575L18.514 10.7784H18.4004L14.7498 22ZM14.5439 16.2827H22.3279V18.6832H14.5439V16.2827ZM25.3723 9.99006V7.45455H37.3184V9.99006H32.8652V22H29.8255V9.99006H25.3723ZM11.6887 29.9901V27.4545H23.6348V29.9901H19.1816V42H16.1419V29.9901H11.6887ZM26.8319 42H23.5364L28.5577 27.4545H32.5208L37.535 42H34.2395L30.5961 30.7784H30.4824L26.8319 42ZM26.6259 36.2827H34.41V38.6832H26.6259V36.2827Z" fill="white"/>
</svg>
