<svg width="44" height="44" viewBox="0 0 44 44" fill="none" xmlns="http://www.w3.org/2000/svg">
<path fill-rule="evenodd" clip-rule="evenodd" d="M11.0656 7.93761C11.0656 8.76642 10.7364 9.56127 10.1504 10.1473C9.5643 10.7334 8.76945 11.0626 7.94064 11.0626C7.11184 11.0626 6.31699 10.7334 5.73093 10.1473C5.14488 9.56127 4.81564 8.76642 4.81564 7.93761C4.81564 7.10881 5.14488 6.31396 5.73093 5.72791C6.31699 5.14185 7.11184 4.81261 7.94064 4.81261C8.76945 4.81261 9.5643 5.14185 10.1504 5.72791C10.7364 6.31396 11.0656 7.10881 11.0656 7.93761ZM10.2844 15.3939C12.0658 14.8339 13.5879 13.6546 14.575 12.0694C15.5621 10.4843 15.9491 8.5981 15.6658 6.75234C15.3825 4.90658 14.4478 3.22324 13.0307 2.00708C11.6137 0.790917 9.80802 0.122313 7.94064 0.122313C6.07327 0.122313 4.26761 0.790917 2.85056 2.00708C1.43351 3.22324 0.498738 4.90658 0.215466 6.75234C-0.0678059 8.5981 0.31915 10.4843 1.30628 12.0694C2.29341 13.6546 3.81546 14.8339 5.59689 15.3939V29.8126C5.59689 32.0918 6.5023 34.2777 8.11394 35.8893C9.72558 37.501 11.9114 38.4064 14.1906 38.4064H16.1563L14.6875 39.8751C14.4638 40.0914 14.2853 40.3501 14.1626 40.6361C14.0399 40.9221 13.9754 41.2297 13.9729 41.5409C13.9703 41.8521 14.0298 42.1607 14.1478 42.4487C14.2657 42.7367 14.4399 42.9983 14.6601 43.2182C14.8802 43.4382 15.142 43.6121 15.4301 43.7298C15.7182 43.8475 16.0268 43.9067 16.338 43.9038C16.6492 43.901 16.9567 43.8362 17.2426 43.7132C17.5285 43.5902 17.787 43.4116 18.0031 43.1876L23.4719 37.7189L25.1281 36.0626L23.4719 34.4064L18.0031 28.9376C17.7861 28.7187 17.5279 28.5449 17.2433 28.4263C16.9588 28.3078 16.6536 28.2467 16.3453 28.2467C16.0371 28.2467 15.7319 28.3078 15.4473 28.4263C15.1628 28.5449 14.9045 28.7187 14.6875 28.9376C14.2486 29.3771 14.0021 29.9728 14.0021 30.5939C14.0021 31.215 14.2486 31.8107 14.6875 32.2501L16.1563 33.7189H14.1906C12.0344 33.7189 10.2844 31.9689 10.2844 29.8126V15.3939ZM26.0031 0.812614C26.2177 0.582343 26.4765 0.397648 26.764 0.269548C27.0515 0.141448 27.3618 0.0725676 27.6765 0.0670151C27.9912 0.0614627 28.3038 0.119352 28.5956 0.237231C28.8875 0.355109 29.1526 0.53056 29.3751 0.753119C29.5977 0.975677 29.7731 1.24078 29.891 1.53262C30.0089 1.82446 30.0668 2.13705 30.0612 2.45175C30.0557 2.76644 29.9868 3.0768 29.8587 3.3643C29.7306 3.65179 29.5459 3.91054 29.3156 4.12511L27.8469 5.59386H29.8156C32.0948 5.59386 34.2807 6.49927 35.8923 8.11092C37.504 9.72256 38.4094 11.9084 38.4094 14.1876V28.6064C40.1908 29.1664 41.7129 30.3457 42.7 31.9308C43.6871 33.5159 44.0741 35.4021 43.7908 37.2479C43.5075 39.0936 42.5728 40.777 41.1557 41.9931C39.7387 43.2093 37.933 43.8779 36.0656 43.8779C34.1983 43.8779 32.3926 43.2093 30.9756 41.9931C29.5585 40.777 28.6237 39.0936 28.3405 37.2479C28.0572 35.4021 28.4442 33.5159 29.4313 31.9308C30.4184 30.3457 31.9405 29.1664 33.7219 28.6064V14.1876C33.7219 12.0314 31.9719 10.2814 29.8156 10.2814H27.8469L29.3156 11.7501C29.5459 11.9647 29.7306 12.2234 29.8587 12.5109C29.9868 12.7984 30.0557 13.1088 30.0612 13.4235C30.0668 13.7382 30.0089 14.0508 29.891 14.3426C29.7731 14.6344 29.5977 14.8996 29.3751 15.1221C29.1526 15.3447 28.8875 15.5201 28.5956 15.638C28.3038 15.7559 27.9912 15.8138 27.6765 15.8082C27.3618 15.8027 27.0515 15.7338 26.764 15.6057C26.4765 15.4776 26.2177 15.2929 26.0031 15.0626L20.5344 9.59386L18.8781 7.93761L20.5344 6.28136L26.0031 0.812614ZM36.0656 39.1876C36.8944 39.1876 37.6893 38.8584 38.2754 38.2723C38.8614 37.6863 39.1906 36.8914 39.1906 36.0626C39.1906 35.2338 38.8614 34.439 38.2754 33.8529C37.6893 33.2669 36.8944 32.9376 36.0656 32.9376C35.2368 32.9376 34.442 33.2669 33.8559 33.8529C33.2699 34.439 32.9406 35.2338 32.9406 36.0626C32.9406 36.8914 33.2699 37.6863 33.8559 38.2723C34.442 38.8584 35.2368 39.1876 36.0656 39.1876Z" fill="black"/>
</svg>
