<svg width="30" height="30" viewBox="0 0 30 30" fill="none" xmlns="http://www.w3.org/2000/svg">
<path d="M1.66667 30C1.19444 30 0.798889 29.76 0.48 29.28C0.16 28.8017 0 28.2083 0 27.5C0 26.7917 0.16 26.1983 0.48 25.72C0.798889 25.24 1.19444 25 1.66667 25H28.3333C28.8056 25 29.2011 25.24 29.52 25.72C29.84 26.1983 30 26.7917 30 27.5C30 28.2083 29.84 28.8017 29.52 29.28C29.2011 29.76 28.8056 30 28.3333 30H1.66667ZM1.66667 17.5C1.19444 17.5 0.798889 17.26 0.48 16.78C0.16 16.3017 0 15.7083 0 15C0 14.2917 0.16 13.6975 0.48 13.2175C0.798889 12.7392 1.19444 12.5 1.66667 12.5H28.3333C28.8056 12.5 29.2011 12.7392 29.52 13.2175C29.84 13.6975 30 14.2917 30 15C30 15.7083 29.84 16.3017 29.52 16.78C29.2011 17.26 28.8056 17.5 28.3333 17.5H1.66667ZM1.66667 5C1.19444 5 0.798889 4.76083 0.48 4.2825C0.16 3.8025 0 3.20833 0 2.5C0 1.79167 0.16 1.1975 0.48 0.7175C0.798889 0.239167 1.19444 0 1.66667 0H28.3333C28.8056 0 29.2011 0.239167 29.52 0.7175C29.84 1.1975 30 1.79167 30 2.5C30 3.20833 29.84 3.8025 29.52 4.2825C29.2011 4.76083 28.8056 5 28.3333 5H1.66667Z" fill="black"/>
</svg>
